<svg width="30" height="28" viewBox="0 0 30 28" fill="none" xmlns="http://www.w3.org/2000/svg">
<path fill-rule="evenodd" clip-rule="evenodd" d="M21.5838 14.9906C22.0719 14.9244 22.4481 14.506 22.4481 13.9998C22.4481 13.4475 22.0003 12.9998 21.4481 12.9998L12.9726 12.9998L16.2759 9.71105L16.373 9.5991C16.6643 9.20824 16.6332 8.65262 16.2789 8.29684C15.8892 7.90549 15.2561 7.90414 14.8647 8.29383L9.84606 13.2912L9.84346 13.2942C9.81073 13.327 9.78027 13.3622 9.75234 13.3993L9.74874 13.4035C9.45677 13.7956 9.48921 14.3531 9.84606 14.7084L14.8647 19.7057L14.9771 19.8023C15.3692 20.0919 15.9247 20.0585 16.2789 19.7027L16.3755 19.5903C16.6652 19.1982 16.6317 18.6428 16.2759 18.2885L12.9745 14.9998L21.4481 14.9998L21.5838 14.9906Z" fill="white"/>
<path opacity="0.1" fill-rule="evenodd" clip-rule="evenodd" d="M29.3334 8.22117L29.3334 19.7798C29.3334 24.318 26.0943 27.3332 21.4454 27.3332L10.5547 27.3332C5.91065 27.3332 2.66671 24.309 2.66671 19.7798L2.66671 8.22117C2.66671 3.68279 5.90604 0.666504 10.5547 0.666504L21.4454 0.666504C26.094 0.666504 29.3334 3.68279 29.3334 8.22117ZM27.3334 19.7798L27.3334 8.22117C27.3334 4.8205 25.0201 2.6665 21.4454 2.6665L10.5547 2.6665C6.97999 2.6665 4.66671 4.8205 4.66671 8.22117L4.66671 19.7798C4.66671 23.1719 6.98508 25.3332 10.5547 25.3332L21.4454 25.3332C25.0205 25.3332 27.3334 23.1802 27.3334 19.7798Z" fill="white"/>
</svg>
