<svg width="44" height="44" viewBox="0 0 44 44" fill="none" xmlns="http://www.w3.org/2000/svg">
<path d="M5.5 5.5L38.5 38.5" stroke="currentColor" stroke-width="2" stroke-linecap="round" stroke-linejoin="round"/>
<path d="M19.4042 19.4095C18.7162 20.097 18.3294 21.0297 18.3291 22.0024C18.3288 22.975 18.7148 23.908 19.4023 24.596C20.0899 25.284 21.0226 25.6707 21.9952 25.6711C22.9679 25.6714 23.9008 25.2853 24.5888 24.5978" stroke="currentColor" stroke-width="2" stroke-linecap="round" stroke-linejoin="round"/>
<path d="M14.8802 10.5365C16.4521 10.0868 20.3649 9.16088 21.9998 9.16667C29.3332 9.16667 35.4437 13.4438 40.3332 22C38.9068 24.4952 36.191 27.7746 34.5575 29.5419M31.821 31.8065C28.8308 33.8232 25.5602 34.8333 21.9998 34.8333C14.6665 34.8333 8.556 30.5562 3.6665 22C6.17634 17.6092 9.007 14.3458 12.1585 12.2082" stroke="currentColor" stroke-width="2" stroke-linecap="round" stroke-linejoin="round"/>
</svg>
