<svg width="44" height="44" viewBox="0 0 44 44" fill="none" xmlns="http://www.w3.org/2000/svg">
<path d="M33 7.33331H11C7.96243 7.33331 5.5 9.79575 5.5 12.8333V31.1666C5.5 34.2042 7.96243 36.6666 11 36.6666H33C36.0376 36.6666 38.5 34.2042 38.5 31.1666V12.8333C38.5 9.79575 36.0376 7.33331 33 7.33331Z" stroke="currentColor" stroke-width="2" stroke-linecap="round" stroke-linejoin="round"/>
<path d="M16.5002 22C18.5252 22 20.1668 20.3584 20.1668 18.3334C20.1668 16.3083 18.5252 14.6667 16.5002 14.6667C14.4751 14.6667 12.8335 16.3083 12.8335 18.3334C12.8335 20.3584 14.4751 22 16.5002 22Z" stroke="currentColor" stroke-width="2" stroke-linecap="round" stroke-linejoin="round"/>
<path d="M27.5 14.6667H31.1667" stroke="currentColor" stroke-width="2" stroke-linecap="round" stroke-linejoin="round"/>
<path d="M27.5 22H31.1667" stroke="currentColor" stroke-width="2" stroke-linecap="round" stroke-linejoin="round"/>
<path d="M12.8335 29.3333H31.1668" stroke="currentColor" stroke-width="2" stroke-linecap="round" stroke-linejoin="round"/>
</svg>
