<svg width="44" height="44" viewBox="0 0 44 44" fill="none" xmlns="http://www.w3.org/2000/svg">
<path d="M31.1665 20.1667H12.8332C10.8081 20.1667 9.1665 21.8083 9.1665 23.8334V34.8334C9.1665 36.8584 10.8081 38.5 12.8332 38.5H31.1665C33.1915 38.5 34.8332 36.8584 34.8332 34.8334V23.8334C34.8332 21.8083 33.1915 20.1667 31.1665 20.1667Z" stroke="currentColor" stroke-width="2" stroke-linecap="round" stroke-linejoin="round"/>
<path d="M21.9998 31.1667C23.0124 31.1667 23.8332 30.3459 23.8332 29.3333C23.8332 28.3208 23.0124 27.5 21.9998 27.5C20.9873 27.5 20.1665 28.3208 20.1665 29.3333C20.1665 30.3459 20.9873 31.1667 21.9998 31.1667Z" stroke="currentColor" stroke-width="2" stroke-linecap="round" stroke-linejoin="round"/>
<path d="M14.6665 20.1667V12.8333C14.6665 10.8884 15.4391 9.02315 16.8144 7.64788C18.1897 6.27262 20.0549 5.5 21.9998 5.5C23.9448 5.5 25.81 6.27262 27.1853 7.64788C28.5606 9.02315 29.3332 10.8884 29.3332 12.8333V20.1667" stroke="currentColor" stroke-width="2" stroke-linecap="round" stroke-linejoin="round"/>
</svg>
